<?xml version="1.0" encoding="UTF-8"?>
<svg width="36px" height="36px" viewBox="0 0 36 36" version="1.1" xmlns="http://www.w3.org/2000/svg" xmlns:xlink="http://www.w3.org/1999/xlink">
    <title>编组 2</title>
    <g id="页面-1" stroke="none" stroke-width="1" fill="none" fill-rule="evenodd">
        <g id="流程管理-患者详情-疗程" transform="translate(-1820.000000, -877.000000)" fill="#FFFFFF">
            <g id="编组-37备份" transform="translate(1806.000000, 863.000000)">
                <g id="编组-2" transform="translate(14.000000, 14.000000)">
                    <g transform="translate(7.000000, 4.000000)" id="形状结合">
                        <path d="M21,0 C21.5522847,-1.99840144e-15 22,0.44771525 22,1 L22.0010775,14.2681881 C21.7066608,14.0976323 21.364732,14 21,14 C19.8954305,14 19,14.8954305 19,16 C19,16.1130551 19.0093805,16.2239193 19.0285706,16.3313948 C16.6832737,17.1469466 15,19.3768985 15,22 L15,27 L13,27 L13,28 L1,28 C0.44771525,28 0,27.5522847 0,27 L0,1 C0,0.44771525 0.44771525,1.11022302e-16 1,0 L21,0 Z M12,18 L4,18 L4,19 L12,19 L12,18 Z M12,14 L4,14 L4,15 L12,15 L12,14 Z M18,10 L4,10 L4,11 L18,11 L18,10 Z M10,4 L4,4 L4,6 L10,6 L10,4 Z" fill-rule="nonzero"></path>
                        <path d="M21,17 C23.7614237,17 26,19.3025356 26,22.1428571 L26,28 L28,28 L28,29 L14,29 L14,28 L16,28 L16,22.1428571 C16,19.3025356 18.2385763,17 21,17 Z M21,18 C18.790861,18 17,19.9187796 17,22.2857143 L17,28 L25,28 L25,22.2857143 C25,19.9187796 23.209139,18 21,18 Z M21,15 C21.5522847,15 22,15.4477153 22,16 C22,16.5522847 21.5522847,17 21,17 C20.4477153,17 20,16.5522847 20,16 C20,15.4477153 20.4477153,15 21,15 Z M20,30 L22,30 L22,31 L20,31 Z"></path>
                    </g>
                </g>
            </g>
        </g>
    </g>
</svg>