<?xml version="1.0" encoding="UTF-8"?>
<svg width="24px" height="24px" viewBox="0 0 24 24" version="1.1" xmlns="http://www.w3.org/2000/svg" xmlns:xlink="http://www.w3.org/1999/xlink">
    <title>账号</title>
    <g id="流程系统" stroke="none" stroke-width="1" fill="none" fill-rule="evenodd">
        <g id="icon-2" transform="translate(-755.000000, -1069.000000)">
            <g id="账号" transform="translate(755.000000, 1069.000000)">
                <rect id="矩形" fill="#000000" fill-rule="nonzero" opacity="0" x="0" y="0" width="24" height="24"></rect>
                <path d="M12,22 C17.5228475,22 22,17.5228475 22,12 C22,6.4771525 17.5228475,2 12,2 C6.4771525,2 2,6.4771525 2,12 C2,17.5228475 6.4771525,22 12,22 Z M12,5 C14.1818182,5 16,6.81818181 16,9 C16,11.1818182 14.1818182,13 12,13 C9.81818179,13 8,11.1818182 8,9 C8,6.81818181 9.81818181,5 12,5 Z M5.5295372,18.039381 C6.68707146,15.4368169 9.18022213,14 12.0295372,14 C14.8788523,14 17.3720029,15.4368169 18.5295372,18.039381 C17.1192074,19.6934643 14.5226879,21 12.0295372,21 C9.5363865,20.9102564 6.85382557,19.6972513 5.5295372,18.039381 Z" id="形状" fill="#FFFFFF"></path>
            </g>
        </g>
    </g>
</svg>